<?xml version="1.0" standalone="no"?>
<!DOCTYPE svg PUBLIC "-//W3C//DTD SVG 20010904//EN"
 "http://www.w3.org/TR/2001/REC-SVG-20010904/DTD/svg10.dtd">
<svg version="1.0"
  xmlns="http://www.w3.org/2000/svg" width="512.000000pt" height="512.000000pt" viewBox="0 0 512.000000 512.000000" preserveAspectRatio="xMidYMid meet">
  <metadata>
Created with https://realfavicongenerator.net/
  </metadata>
  <g transform="translate(0.000000,512.000000) scale(0.100000,-0.100000)" fill="#000000" stroke="none">
    <path d="M1021 5090 c-96 -26 -200 -77 -281 -138 -113 -85 -463 -474 -625
-693 -125 -170 -140 -220 -76 -254 27 -13 52 -12 297 20 292 38 276 39 294
-25 15 -54 12 -100 -13 -160 -32 -78 -71 -131 -170 -233 -181 -185 -220 -369
-120 -567 46 -90 114 -150 200 -176 32 -10 60 -19 61 -20 2 -1 -6 -40 -17 -86
-182 -717 135 -1307 918 -1710 l116 -59 78 -257 c43 -141 85 -267 93 -279 9
-15 29 -25 54 -29 47 -8 46 -2 22 -154 l-17 -105 -198 -5 c-194 -5 -199 -6
-218 -29 -23 -28 -24 -69 -3 -99 l15 -22 644 0 644 0 21 27 c16 20 20 36 16
58 -9 42 -27 56 -80 62 -25 3 -46 11 -46 17 0 6 9 63 20 126 11 63 20 116 20
118 0 1 12 2 28 3 15 0 42 5 61 12 30 11 44 32 141 212 l108 200 104 11 c110
13 205 33 278 59 42 15 45 15 58 -2 57 -79 143 -181 184 -218 79 -71 128 -90
233 -90 79 0 97 4 143 28 104 54 176 156 189 265 l6 50 82 4 c67 3 95 10 147
36 163 80 263 265 230 429 -6 32 -14 67 -17 79 -6 19 -1 22 40 27 64 9 156 60
206 114 22 24 55 74 72 111 30 62 32 75 32 172 0 92 -3 112 -26 160 -14 31
-40 72 -57 91 l-31 36 38 21 c87 49 159 144 185 247 59 223 -61 448 -276 519
-16 5 -13 14 23 80 115 213 80 471 -86 642 -90 92 -210 144 -332 144 -29 0
-53 1 -53 3 0 1 9 31 20 65 24 78 26 203 5 287 -89 339 -493 450 -716 196 -29
-32 -116 -195 -290 -543 -137 -274 -255 -498 -262 -498 -6 0 -39 7 -72 14
-221 53 -541 66 -749 32 -113 -18 -269 -61 -348 -95 l-45 -19 -39 22 c-45 25
-79 72 -96 130 -18 65 -12 218 16 381 23 138 24 151 10 173 -9 14 -25 27 -36
30 -20 5 -20 10 -14 95 3 50 6 111 6 136 0 42 3 47 33 61 l32 15 -2 110 c-4
272 -121 489 -317 585 -44 22 -112 47 -151 55 -99 21 -253 18 -344 -5z m-570
-770 c6 -30 18 -68 26 -83 8 -16 12 -31 9 -34 -7 -7 -178 -32 -219 -33 l-29 0
31 43 c18 23 62 79 99 124 55 69 67 79 70 60 1 -12 7 -47 13 -77z m3614 41
c66 -30 131 -95 167 -169 29 -58 33 -77 33 -142 0 -66 -4 -84 -30 -133 -19
-35 -138 -179 -316 -379 -157 -178 -297 -336 -310 -351 l-24 -28 -51 35 c-28
19 -92 55 -143 81 -50 25 -91 48 -91 51 0 2 110 225 245 494 261 522 266 529
352 557 45 15 113 8 168 -16z m469 -674 c63 -29 141 -105 178 -174 99 -181 61
-381 -90 -485 -26 -18 -182 -90 -347 -160 -264 -112 -301 -126 -310 -112 -36
59 -134 183 -190 240 -36 37 -64 71 -63 75 10 26 499 566 537 592 89 61 185
69 285 24z m256 -843 c39 -12 66 -29 104 -67 59 -59 76 -103 76 -194 0 -112
-79 -218 -185 -248 -44 -12 -643 -52 -649 -43 -1 2 -13 46 -25 98 -13 52 -34
122 -47 154 -13 33 -23 60 -21 61 9 6 567 239 587 246 41 12 103 10 160 -7z
m-85 -703 c200 -90 195 -371 -8 -456 -76 -32 -135 -21 -352 63 l-200 78 4 155
c2 85 4 155 5 156 3 3 324 20 416 21 73 1 104 -3 135 -17z m-396 -541 c49 -19
100 -47 123 -68 104 -94 115 -236 26 -337 -58 -65 -108 -89 -188 -89 -89 0
-129 23 -232 135 l-85 91 51 102 c29 55 62 133 75 173 l23 72 62 -23 c33 -13
99 -38 145 -56z m-278 -595 c23 -51 23 -89 0 -140 -22 -48 -54 -79 -103 -100
-96 -39 -158 -10 -268 125 -45 56 -80 102 -79 104 2 1 36 23 75 49 38 25 99
73 135 106 l64 61 79 -83 c43 -45 87 -100 97 -122z m-1671 -470 c71 -108 68
-105 110 -105 21 0 41 -3 43 -7 3 -5 -5 -65 -16 -136 l-21 -127 -243 0 c-188
0 -243 3 -243 13 0 6 8 65 17 130 l17 117 42 0 c57 0 87 26 114 102 13 35 32
83 42 107 l19 44 40 -39 c22 -21 58 -66 79 -99z"/>
  </g>
</svg>
